<svg width="25" height="24" viewBox="0 0 25 24" fill="none" xmlns="http://www.w3.org/2000/svg">
<path fill-rule="evenodd" clip-rule="evenodd" d="M12.7798 2C8.36151 2 4.77979 6.00258 4.77979 10.5C4.77979 14.9622 7.33311 19.8124 11.3169 21.6744C12.2455 22.1085 13.314 22.1085 14.2427 21.6744C18.2265 19.8124 20.7798 14.9622 20.7798 10.5C20.7798 6.00258 17.1981 2 12.7798 2ZM12.7798 12C13.8844 12 14.7798 11.1046 14.7798 10C14.7798 8.89543 13.8844 8 12.7798 8C11.6752 8 10.7798 8.89543 10.7798 10C10.7798 11.1046 11.6752 12 12.7798 12Z" fill="#161117"/>
</svg>
