<svg width="18" height="19" viewBox="0 0 18 19" fill="none" xmlns="http://www.w3.org/2000/svg">
<path d="M16.9512 14.4695C16.9512 14.6577 16.8764 14.8383 16.7432 14.9715C16.6101 15.1046 16.4295 15.1794 16.2412 15.1794H7.72211C7.53382 15.1794 7.35325 15.1046 7.22011 14.9715C7.08698 14.8383 7.01218 14.6577 7.01218 14.4695C7.01218 13.3398 7.46095 12.2563 8.25978 11.4575C9.0586 10.6587 10.142 10.2099 11.2717 10.2099H12.6916C13.8213 10.2099 14.9047 10.6587 15.7036 11.4575C16.5024 12.2563 16.9512 13.3398 16.9512 14.4695ZM11.9817 3.82056C11.42 3.82056 10.871 3.9871 10.404 4.29913C9.93703 4.61116 9.57305 5.05467 9.35812 5.57356C9.14319 6.09244 9.08695 6.66342 9.19653 7.21426C9.3061 7.76511 9.57655 8.2711 9.97369 8.66824C10.3708 9.06538 10.8768 9.33584 11.4277 9.44541C11.9785 9.55498 12.5495 9.49874 13.0684 9.28381C13.5873 9.06888 14.0308 8.70491 14.3428 8.23792C14.6548 7.77093 14.8214 7.22191 14.8214 6.66027C14.8214 5.90713 14.5222 5.18484 13.9896 4.65229C13.4571 4.11974 12.7348 3.82056 11.9817 3.82056ZM5.59233 3.82056C5.03068 3.82056 4.48166 3.9871 4.01467 4.29913C3.54768 4.61116 3.18371 5.05467 2.96878 5.57356C2.75385 6.09244 2.69761 6.66342 2.80718 7.21426C2.91675 7.76511 3.18721 8.2711 3.58435 8.66824C3.98149 9.06538 4.48748 9.33584 5.03833 9.44541C5.58918 9.55498 6.16015 9.49874 6.67904 9.28381C7.19792 9.06888 7.64143 8.70491 7.95346 8.23792C8.26549 7.77093 8.43203 7.22191 8.43203 6.66027C8.43203 5.90713 8.13285 5.18484 7.6003 4.65229C7.06775 4.11974 6.34546 3.82056 5.59233 3.82056ZM5.59233 14.4695C5.59127 13.7238 5.73819 12.9853 6.02456 12.2967C6.31094 11.6082 6.73108 10.9834 7.26065 10.4584C6.82727 10.2948 6.36794 10.2106 5.90469 10.2099H5.27996C4.23367 10.2118 3.23078 10.6282 2.49094 11.3681C1.75111 12.1079 1.33464 13.1108 1.33276 14.1571V14.4695C1.33276 14.6577 1.40756 14.8383 1.5407 14.9715C1.67383 15.1046 1.85441 15.1794 2.04269 15.1794H5.72011C5.63746 14.9517 5.59425 14.7117 5.59233 14.4695Z" fill="#131212"/>
</svg>
