<svg width="25" height="24" viewBox="0 0 25 24" fill="none" xmlns="http://www.w3.org/2000/svg">
<g clip-path="url(#clip0_41_318)">
<path fill-rule="evenodd" clip-rule="evenodd" d="M12.6787 13.3627C15.0441 13.3627 16.9687 11.438 16.9687 9.07172C16.9687 6.70594 15.0441 4.78125 12.6787 4.78125C10.3134 4.78125 8.38687 6.70594 8.38687 9.07172C8.3864 11.438 10.3134 13.3627 12.6787 13.3627ZM12.78 0.984375C18.8531 0.984375 23.7956 5.92594 23.7956 12C23.7956 14.8786 22.6847 17.5022 20.8701 19.4667C20.2176 17.9348 19.1597 16.6162 17.7928 15.6366C16.2895 14.5608 14.5214 13.9772 12.6806 13.9495C12.6783 13.9491 12.6764 13.9491 12.6741 13.9495C10.8619 13.9767 9.11812 14.5439 7.6303 15.5892C6.2789 16.5389 5.22093 17.8214 4.55062 19.3148C2.81812 17.3681 1.76437 14.805 1.76437 12C1.76437 5.92594 6.70687 0.984375 12.78 0.984375ZM20.9011 3.87937C23.0705 6.04875 24.2648 8.9325 24.2648 12C24.2648 15.0675 23.07 17.9517 20.9011 20.1206C18.7322 22.29 15.8484 23.4844 12.78 23.4844C9.71343 23.4844 6.8278 22.29 4.6589 20.1206C2.48952 17.9517 1.29468 15.0675 1.29468 12C1.29468 8.9325 2.48952 6.04875 4.65843 3.87937C6.8278 1.71047 9.71343 0.515625 12.78 0.515625C15.8484 0.515625 18.7322 1.71047 20.9011 3.87937Z" fill="#161117"/>
</g>
<defs>
<clipPath id="clip0_41_318">
<rect width="24" height="24" fill="white" transform="translate(0.779785)"/>
</clipPath>
</defs>
</svg>
